<mxfile host="app.diagrams.net" agent="Mozilla/5.0 (Windows NT 10.0; Win64; x64) AppleWebKit/537.36 (KHTML, like Gecko) Chrome/136.0.0.0 Safari/537.36" version="27.1.1">
  <diagram name="Page-1" id="Qo-gR1AfrrSSmKTgNt0e">
    <mxGraphModel dx="1251" dy="660" grid="1" gridSize="10" guides="1" tooltips="1" connect="1" arrows="1" fold="1" page="1" pageScale="1" pageWidth="850" pageHeight="1100" math="0" shadow="0">
      <root>
        <mxCell id="0" />
        <mxCell id="1" parent="0" />
        <mxCell id="oWy8R4hLPHdFStUNaSG6-1" value="&lt;b&gt;Bastion Host&lt;/b&gt;" style="rounded=1;whiteSpace=wrap;html=1;fillColor=#d5e8d4;gradientColor=#97d077;strokeColor=#82b366;" vertex="1" parent="1">
          <mxGeometry x="270" y="160" width="160" height="100" as="geometry" />
        </mxCell>
        <mxCell id="oWy8R4hLPHdFStUNaSG6-2" value="&lt;b&gt;Database Server&lt;/b&gt;" style="shape=cylinder3;whiteSpace=wrap;html=1;boundedLbl=1;backgroundOutline=1;size=15;fillColor=#f8cecc;gradientColor=#ea6b66;strokeColor=#b85450;" vertex="1" parent="1">
          <mxGeometry x="560" y="300" width="120" height="80" as="geometry" />
        </mxCell>
        <mxCell id="oWy8R4hLPHdFStUNaSG6-3" style="edgeStyle=orthogonalEdgeStyle;rounded=0;orthogonalLoop=1;jettySize=auto;html=1;entryX=0.5;entryY=0;entryDx=0;entryDy=0;entryPerimeter=0;" edge="1" parent="1" source="oWy8R4hLPHdFStUNaSG6-1" target="oWy8R4hLPHdFStUNaSG6-2">
          <mxGeometry relative="1" as="geometry" />
        </mxCell>
        <mxCell id="oWy8R4hLPHdFStUNaSG6-4" value="&lt;b&gt;Admin access&lt;/b&gt;" style="text;html=1;align=center;verticalAlign=middle;resizable=0;points=[];autosize=1;strokeColor=none;fillColor=none;" vertex="1" parent="1">
          <mxGeometry x="470" y="170" width="100" height="30" as="geometry" />
        </mxCell>
        <mxCell id="oWy8R4hLPHdFStUNaSG6-5" value="&lt;b&gt;Bastion Host&lt;/b&gt;" style="rounded=1;whiteSpace=wrap;html=1;fillColor=#fff2cc;gradientColor=#ffd966;strokeColor=#d6b656;" vertex="1" parent="1">
          <mxGeometry x="270" y="290" width="160" height="100" as="geometry" />
        </mxCell>
        <mxCell id="oWy8R4hLPHdFStUNaSG6-6" style="edgeStyle=orthogonalEdgeStyle;rounded=0;orthogonalLoop=1;jettySize=auto;html=1;entryX=0;entryY=0.5;entryDx=0;entryDy=0;entryPerimeter=0;" edge="1" parent="1" source="oWy8R4hLPHdFStUNaSG6-5" target="oWy8R4hLPHdFStUNaSG6-2">
          <mxGeometry relative="1" as="geometry" />
        </mxCell>
        <mxCell id="oWy8R4hLPHdFStUNaSG6-7" value="&lt;b&gt;Limited Access&lt;/b&gt;" style="text;html=1;align=center;verticalAlign=middle;resizable=0;points=[];autosize=1;strokeColor=none;fillColor=none;" vertex="1" parent="1">
          <mxGeometry x="445" y="350" width="110" height="30" as="geometry" />
        </mxCell>
      </root>
    </mxGraphModel>
  </diagram>
</mxfile>
